<?xml version="1.0" encoding="utf-8"?>
<!-- Generator: Adobe Illustrator 26.0.1, SVG Export Plug-In . SVG Version: 6.00 Build 0)  -->
<svg version="1.1" id="Layer_1" xmlns="http://www.w3.org/2000/svg" xmlns:xlink="http://www.w3.org/1999/xlink" x="0px" y="0px"
	 viewBox="0 0 96 96" style="enable-background:new 0 0 96 96;" xml:space="preserve">
<style type="text/css">
	.st0{clip-path:url(#SVGID_00000061450175186211293940000007682396181954749100_);}
	.st1{clip-path:url(#SVGID_00000026157195507829089620000007630179943381148087_);}
	.st2{clip-path:url(#SVGID_00000151515535154102477880000010017837931273357726_);}
</style>
<g>
	<g>
		<defs>
			<rect id="SVGID_1_" width="96" height="96"/>
		</defs>
		<clipPath id="SVGID_00000036244586201233439010000003821646622596325254_">
			<use xlink:href="#SVGID_1_"  style="overflow:visible;"/>
		</clipPath>
		<path style="clip-path:url(#SVGID_00000036244586201233439010000003821646622596325254_);" d="M48,0C35,0,33.3,0.1,28.2,0.3
			c-5.1,0.2-8.6,1-11.6,2.2c-3.2,1.2-5.8,2.9-8.5,5.5c-2.7,2.7-4.3,5.3-5.5,8.5c-1.2,3-2,6.5-2.2,11.6C0.1,33.3,0,35,0,48
			s0.1,14.7,0.3,19.8c0.2,5.1,1,8.6,2.2,11.6c1.2,3.2,2.9,5.8,5.5,8.5s5.3,4.3,8.5,5.5c3,1.2,6.5,2,11.6,2.2C33.3,95.9,35,96,48,96
			s14.7-0.1,19.8-0.3c5.1-0.2,8.6-1,11.6-2.2c3.2-1.2,5.8-2.9,8.5-5.5s4.3-5.3,5.5-8.5c1.2-3.1,2-6.5,2.2-11.6
			C95.9,62.7,96,61,96,48s-0.1-14.7-0.3-19.8c-0.2-5.1-1-8.6-2.2-11.6c-1.2-3.2-2.9-5.8-5.5-8.5c-2.7-2.7-5.3-4.3-8.5-5.5
			c-3.1-1.2-6.5-2-11.6-2.2C62.7,0.1,61,0,48,0 M48,8.6c12.8,0,14.3,0.1,19.4,0.3c4.7,0.2,7.2,1,8.9,1.6c2.2,0.9,3.8,1.9,5.5,3.6
			c1.7,1.7,2.7,3.3,3.6,5.5c0.7,1.7,1.4,4.2,1.6,8.9c0.2,5.1,0.3,6.6,0.3,19.4c0,12.8-0.1,14.3-0.3,19.4c-0.2,4.7-1,7.2-1.6,8.9
			c-0.9,2.2-1.9,3.8-3.6,5.5c-1.7,1.7-3.3,2.7-5.5,3.6c-1.7,0.7-4.2,1.4-8.9,1.6c-5.1,0.2-6.6,0.3-19.4,0.3s-14.3-0.1-19.4-0.3
			c-4.7-0.2-7.2-1-8.9-1.6c-2.2-0.9-3.8-1.9-5.5-3.6c-1.7-1.7-2.7-3.3-3.6-5.5c-0.7-1.7-1.4-4.2-1.7-8.9C8.7,62.3,8.7,60.8,8.7,48
			s0.1-14.3,0.3-19.4c0.2-4.7,1-7.2,1.7-8.9c0.9-2.2,1.9-3.8,3.6-5.5c1.7-1.7,3.3-2.7,5.5-3.6c1.7-0.7,4.2-1.4,8.9-1.6
			C33.7,8.7,35.2,8.6,48,8.6"/>
	</g>
	<g>
		<defs>
			<rect id="SVGID_00000093134802074975363430000013731158382176074683_" width="96" height="96"/>
		</defs>
		<clipPath id="SVGID_00000173883567127923418580000004059956255241103029_">
			<use xlink:href="#SVGID_00000093134802074975363430000013731158382176074683_"  style="overflow:visible;"/>
		</clipPath>
		<path style="clip-path:url(#SVGID_00000173883567127923418580000004059956255241103029_);" d="M48,64c-8.8,0-16-7.2-16-16
			s7.2-16,16-16s16,7.2,16,16C64,56.8,56.8,64,48,64 M48,23.3c-13.6,0-24.7,11-24.7,24.7c0,13.6,11,24.7,24.7,24.7
			c13.6,0,24.7-11,24.7-24.7S61.6,23.3,48,23.3"/>
	</g>
	<g>
		<defs>
			<rect id="SVGID_00000160892807997017115360000004870696126701268658_" width="96" height="96"/>
		</defs>
		<clipPath id="SVGID_00000071530096885622019860000004950061520767940769_">
			<use xlink:href="#SVGID_00000160892807997017115360000004870696126701268658_"  style="overflow:visible;"/>
		</clipPath>
		<path style="clip-path:url(#SVGID_00000071530096885622019860000004950061520767940769_);" d="M79.4,22.4c0,3.2-2.6,5.8-5.8,5.8
			s-5.8-2.6-5.8-5.8s2.6-5.8,5.8-5.8C76.8,16.6,79.4,19.2,79.4,22.4"/>
	</g>
</g>
</svg>
